<svg version="1.1" id="Layer_1" xmlns="http://www.w3.org/2000/svg" xmlns:xlink="http://www.w3.org/1999/xlink" x="0px" y="0px"
	 width="100%" viewBox="0 0 313 235" enable-background="new 0 0 313 235" xml:space="preserve">
<path fill="#000000" opacity="1.000000" stroke="none" 
	d="
M226.000000,236.000000 
	C150.666672,236.000000 75.833351,236.000000 1.000020,236.000000 
	C1.000013,157.666687 1.000013,79.333366 1.000007,1.000041 
	C105.333305,1.000027 209.666611,1.000027 313.999939,1.000014 
	C313.999939,79.333290 313.999939,157.666580 313.999969,235.999939 
	C284.833344,236.000000 255.666672,236.000000 226.000000,236.000000 
M211.917221,141.464462 
	C211.617996,141.267532 211.318787,141.070618 210.717987,140.203400 
	C210.350067,139.495270 209.719864,138.809753 209.656525,138.075363 
	C209.225128,133.071884 208.104462,127.946320 208.777557,123.077393 
	C209.532516,117.616348 214.560043,117.623535 219.911057,117.976631 
	C222.948410,117.929283 225.985779,117.881927 229.925293,117.975449 
	C233.295212,117.922829 236.665146,117.870209 240.767792,117.963455 
	C242.234741,118.869606 243.832321,119.618835 245.144455,120.711006 
	C249.269867,124.144806 252.971939,123.822151 256.780487,119.891472 
	C257.789886,118.849709 259.562134,118.547104 261.916107,118.031052 
	C268.580261,118.022537 275.249573,117.870476 281.904907,118.108444 
	C283.528320,118.166496 285.446991,119.156387 286.637207,120.322678 
	C289.576263,123.202583 294.858429,124.038887 297.847229,121.683334 
	C300.569305,119.538010 301.556091,113.531609 299.608551,110.962517 
	C297.105377,107.660484 291.684937,107.029816 287.973816,109.574577 
	C286.636414,110.491653 285.240967,111.324112 282.959656,112.077850 
	C274.659637,112.101555 266.359589,112.125259 257.398071,111.840187 
	C253.571381,106.242661 248.185318,105.948631 243.141937,111.461479 
	C241.541473,111.640961 239.942719,111.957176 238.340271,111.977058 
	C229.902817,112.081810 221.464417,112.111748 212.317978,112.001411 
	C210.243835,109.686737 208.169678,107.372063 206.771332,104.659691 
	C207.877411,99.785812 208.983475,94.911934 210.025223,90.021614 
	C210.025223,90.021614 210.051346,90.082642 210.674988,89.776138 
	C212.177521,87.159836 213.680054,84.543526 215.636871,81.811470 
	C215.916809,81.438660 216.196762,81.065849 216.915848,80.141212 
	C219.685699,76.846252 222.115860,73.162140 225.320267,70.365013 
	C228.569504,67.528755 227.891174,64.263969 227.936554,60.852619 
	C227.955017,59.464539 228.028595,57.680908 228.846802,56.764393 
	C233.956696,51.040550 239.301788,45.527344 244.529999,39.908108 
	C246.236984,38.073475 247.803452,36.108864 249.479584,34.244526 
	C250.622025,32.973820 252.453537,31.922117 252.801773,30.487278 
	C253.012543,29.618813 250.990143,27.256294 249.952042,27.244537 
	C248.070221,27.223223 245.633972,27.938177 244.373291,29.251831 
	C237.143005,36.785793 230.246735,44.639404 223.076553,52.232933 
	C222.112411,53.254032 220.167587,54.032715 218.806442,53.865963 
	C214.876495,53.384514 211.834412,56.074577 211.520111,58.507763 
	C210.747284,64.490623 205.661270,66.741173 202.271118,71.162254 
	C198.422134,74.466133 194.495651,77.686447 190.778915,81.132980 
	C189.856552,81.988289 189.613434,83.576088 189.058090,84.827194 
	C190.357269,85.372650 191.711761,86.486778 192.946228,86.366730 
	C198.805725,85.796898 201.438553,80.769310 205.739548,77.009315 
	C206.873184,76.039612 208.006836,75.069908 209.729675,73.797485 
	C210.516815,72.885551 211.303970,71.973625 212.806320,71.017883 
	C213.521179,71.058128 214.236038,71.098373 214.976425,71.502914 
	C214.976425,71.502914 214.953735,71.867386 214.338516,72.147987 
	C213.825989,73.099030 213.313446,74.050072 212.392487,75.112793 
	C212.135178,75.278770 211.995819,75.514488 211.331345,76.136826 
	C210.176270,78.398224 209.021194,80.659630 207.922012,82.964333 
	C207.922012,82.964333 207.924210,82.893669 207.328735,83.153435 
	C207.190170,83.774406 207.051605,84.395370 206.975845,84.972977 
	C206.975845,84.972977 206.932098,84.910446 206.282196,85.207909 
	C204.847168,88.672028 203.157364,92.057121 202.051102,95.623230 
	C201.012833,98.970154 200.591507,102.508461 199.982346,105.971977 
	C199.982346,105.971977 199.991241,105.888283 199.503204,106.007362 
	C199.344986,106.062202 199.186752,106.117043 198.497803,106.060326 
	C198.321457,106.100067 198.145096,106.139801 197.449310,106.135147 
	C197.268692,106.420380 197.088058,106.705620 196.997147,106.992928 
	C196.997147,106.992928 196.999115,106.903229 196.454468,107.048729 
	C196.276581,107.363655 196.098679,107.678574 195.978317,107.957565 
	C195.978317,107.957565 195.935638,107.904839 195.200760,107.980537 
	C194.191071,109.985497 193.181396,111.990448 192.018036,114.743164 
	C192.073593,115.499954 192.129150,116.256737 191.869736,117.685753 
	C190.552322,121.427444 189.234909,125.169136 187.191635,128.556396 
	C186.460403,123.566017 185.858261,118.552513 184.969269,113.590393 
	C183.436600,105.035538 181.725525,96.512642 179.989059,87.094795 
	C179.601120,83.402657 179.213196,79.710518 178.965225,75.201614 
	C178.020691,71.443390 177.076157,67.685158 176.032364,63.038330 
	C175.345917,57.725128 174.800247,52.386089 173.834717,47.124100 
	C173.673447,46.245232 171.707031,45.213684 170.539276,45.168449 
	C169.719849,45.136711 168.196716,46.585358 168.090057,47.501274 
	C167.296417,54.315628 166.778427,61.162079 166.031815,68.824837 
	C165.070999,75.554703 164.110168,82.284576 163.017303,89.855217 
	C162.396469,94.916611 161.775635,99.977997 161.014404,105.879013 
	C159.376373,117.863594 157.738342,129.848175 155.931976,143.064407 
	C155.352127,140.969177 155.079422,139.983795 154.681168,138.267487 
	C154.394257,136.845123 154.107361,135.422775 153.960068,133.391602 
	C153.676086,132.908508 153.392105,132.425415 153.025497,131.104538 
	C152.379486,127.445885 151.720886,123.789406 151.090317,120.128098 
	C150.043961,114.052658 149.084824,107.961250 147.958359,101.900833 
	C147.014145,96.820953 146.090790,91.720261 144.757248,86.736061 
	C143.963348,83.768837 142.149841,81.197197 138.381149,82.053864 
	C136.529617,82.474731 133.939789,82.912560 133.193817,84.210457 
	C131.889053,86.480560 131.749146,89.420174 130.970764,92.857796 
	C129.279922,99.213722 127.589066,105.569641 125.070534,111.987755 
	C122.382782,112.382324 119.695038,112.776901 116.171989,113.034027 
	C114.479385,113.007874 112.786774,112.981728 110.903343,112.428261 
	C110.571220,112.331512 110.239098,112.234764 108.988823,112.012711 
	C97.678474,111.980743 86.368126,111.948776 74.839584,111.273094 
	C69.304489,105.933304 64.031845,106.258850 60.094601,112.011940 
	C51.079689,112.049103 42.064774,112.086266 32.405193,111.790085 
	C30.529522,107.269012 27.004190,107.018257 22.869814,107.947662 
	C19.335854,108.742104 18.262228,111.283562 18.012192,114.378822 
	C17.702311,118.214920 19.282097,121.205620 22.989296,122.432388 
	C26.547348,123.609810 29.940989,123.580803 32.277870,119.654053 
	C32.869457,118.659988 34.707836,118.407906 36.907349,117.934036 
	C43.532715,117.954041 50.168175,117.778023 56.777031,118.118454 
	C58.658722,118.215385 60.820496,119.442360 62.230122,120.799126 
	C65.377075,123.828094 72.144157,123.663803 75.042175,120.439079 
	C76.128914,119.229820 78.058609,118.183586 79.646103,118.120338 
	C87.085838,117.823936 94.540237,117.895889 102.546181,117.947365 
	C102.730560,117.905136 102.914932,117.862900 103.967163,117.949883 
	C113.037544,118.059402 113.037544,118.059402 112.234573,124.366394 
	C112.618393,130.663498 110.731178,136.116943 106.602142,140.952194 
	C105.552040,142.181915 105.483803,144.250107 104.468384,146.108475 
	C104.290016,146.400131 104.111649,146.691788 103.376602,147.227798 
	C103.219460,147.806564 103.062317,148.385315 102.429565,149.121429 
	C102.345055,149.415466 102.260544,149.709518 102.032745,150.648697 
	C101.985062,151.086182 101.937378,151.523682 101.267090,152.241119 
	C99.173523,154.141266 97.370155,156.667007 94.921974,157.802689 
	C90.689735,159.765961 89.702896,162.816147 90.014885,166.961884 
	C90.161674,168.912430 89.955528,170.889526 89.183998,172.930771 
	C88.435043,174.275665 87.686089,175.620560 86.321983,177.237259 
	C81.344963,181.892670 76.380814,186.561966 71.380920,191.192673 
	C70.274208,192.217682 68.939163,193.007385 67.894524,194.085037 
	C66.819511,195.194000 65.144638,196.584030 65.230644,197.739532 
	C65.340347,199.213440 66.738907,201.463638 67.972046,201.760910 
	C69.513412,202.132477 72.061325,201.397171 73.116257,200.203964 
	C78.615158,193.984039 83.777924,187.466965 89.686180,180.796295 
	C91.835503,178.561798 93.984825,176.327286 96.836273,174.364914 
	C102.263397,175.512894 107.387390,173.157104 108.405090,167.843170 
	C109.060509,164.420853 110.938850,162.480743 113.003670,160.402557 
	C117.152664,156.226685 121.060860,151.594818 125.901207,148.421295 
	C128.063049,147.003891 130.565704,146.386124 129.604126,143.778122 
	C129.262054,142.850403 125.047508,142.207108 123.541260,143.072006 
	C119.448303,145.422226 115.773651,148.545319 112.098373,151.563217 
	C109.579575,153.631485 107.337357,156.036575 104.971497,158.291107 
	C104.370903,157.717865 103.770302,157.144638 103.169708,156.571411 
	C104.791321,154.672211 106.412941,152.773010 108.753685,150.731430 
	C109.097931,149.873337 109.256607,148.863602 109.814941,148.180481 
	C115.806351,140.850037 118.876701,132.500763 118.999695,122.250412 
	C120.135284,118.342278 123.112328,117.917458 126.599152,117.858521 
	C128.096252,117.833221 129.573868,116.655891 130.997925,116.000092 
	C130.997925,116.000092 131.013275,116.060616 131.619141,115.711540 
	C131.777527,114.806480 131.935928,113.901413 132.751114,112.653847 
	C133.113480,110.764969 133.475830,108.876091 134.189865,106.282951 
	C135.077301,103.199409 135.964737,100.115875 136.961517,96.241486 
	C137.239868,94.369072 137.518204,92.496666 137.796555,90.624252 
	C139.119720,91.613266 139.721268,92.574188 139.914047,93.611107 
	C141.638641,102.887627 143.208084,112.193542 144.993256,121.458038 
	C146.253799,127.999771 147.778122,134.490677 149.038437,141.842072 
	C149.651443,144.917358 150.264450,147.992661 150.940308,151.951035 
	C151.615341,157.409531 152.185898,162.884918 153.063629,168.310623 
	C153.217987,169.264801 154.689499,170.719894 155.497879,170.684662 
	C156.670273,170.633606 158.445572,169.670364 158.800766,168.679352 
	C159.543335,166.607468 159.525665,164.263107 160.211929,161.276733 
	C161.136444,154.850433 162.151031,148.435501 162.965149,141.995255 
	C164.312729,131.334991 165.531158,120.658394 166.958527,109.094894 
	C167.578995,102.726158 168.199478,96.357414 168.962662,89.153107 
	C169.380142,86.296715 169.690247,83.419197 170.247025,80.590218 
	C170.746933,78.050179 171.517929,75.563492 172.043152,73.933990 
	C172.750275,78.619118 173.457382,83.304253 174.028305,88.829506 
	C175.719986,99.624275 177.347702,110.429634 179.132507,121.208984 
	C179.927673,126.011421 180.750763,130.848694 182.154556,135.490707 
	C182.686371,137.249344 184.633118,139.179184 186.384064,139.838913 
	C189.529770,141.024094 191.097244,138.668488 192.022400,135.913345 
	C192.999786,133.002640 193.835464,130.013779 195.156586,127.262405 
	C195.784531,125.954643 197.396133,125.119209 198.562134,124.069801 
	C199.372925,125.440643 200.463348,126.721542 200.938934,128.200211 
	C202.089478,131.777374 202.953262,135.446777 203.998764,139.802246 
	C206.314316,143.235687 208.629868,146.669113 211.018417,150.545029 
	C211.018417,150.545029 211.154465,150.972366 211.158997,151.633286 
	C212.074982,152.783554 212.990952,153.933823 214.099060,155.577377 
	C214.364075,156.009842 214.629089,156.442307 214.280014,157.174530 
	C212.214645,156.429535 210.149277,155.684555 207.919144,154.434540 
	C207.621002,154.260681 207.322861,154.086807 207.019180,153.978638 
	C207.019180,153.978638 207.084503,153.969666 206.927460,153.452148 
	C206.627106,153.272705 206.326752,153.093246 206.026611,152.987717 
	C206.026611,152.987717 206.063309,152.923508 205.812286,152.305267 
	C200.900345,148.108307 197.504578,141.418579 188.507385,142.173523 
	C189.207397,144.273544 189.268127,146.559387 190.435364,147.580856 
	C194.713287,151.324661 199.359238,154.647949 204.143005,158.742233 
	C207.422867,162.063400 211.101379,164.881546 212.241653,170.010849 
	C212.898560,172.965790 215.758224,174.711670 219.331696,174.345840 
	C220.488831,174.227371 221.720840,174.840317 223.113800,175.643646 
	C223.803238,176.257797 224.492661,176.871948 225.261871,177.749847 
	C225.261871,177.749847 225.527832,177.821869 225.911530,178.343506 
	C232.112457,184.836380 238.313385,191.329239 244.736206,198.130905 
	C245.120453,198.431244 245.504715,198.731583 246.154327,199.607803 
	C246.752396,199.678986 247.350449,199.750168 248.733505,199.962555 
	C249.425217,198.955933 250.116913,197.949310 250.944305,196.354736 
	C250.630142,195.968826 250.315994,195.582916 249.002853,194.557205 
	C248.280930,194.438583 247.558990,194.319962 246.748657,194.190140 
	C246.748657,194.190140 246.743301,194.279099 247.381699,194.292938 
	C247.377045,194.080139 247.372406,193.867340 247.285187,192.975433 
	C242.211960,187.625549 237.138748,182.275665 232.026077,176.977142 
	C232.026077,176.977142 232.087875,176.996506 231.924988,176.469925 
	C231.618958,176.287476 231.312927,176.105026 231.006882,175.992462 
	C231.006882,175.992462 231.076752,175.990524 230.920212,175.466049 
	C230.616180,175.285110 230.312164,175.104156 230.006699,174.992569 
	C230.006699,174.992569 230.076019,174.990768 229.918564,174.464569 
	C229.614044,174.280716 229.309509,174.096863 229.004715,173.992233 
	C229.004715,173.992233 229.083908,173.992355 228.931320,173.460175 
	C228.623871,173.277466 228.316422,173.094757 228.008347,172.991516 
	C228.008347,172.991516 228.087845,172.991959 227.922638,172.469925 
	C227.621689,172.282532 227.320724,172.095139 226.977539,171.477325 
	C226.977539,171.477325 226.872955,171.057663 227.251053,170.301422 
	C228.534134,165.570084 229.262787,160.991959 223.310974,157.816330 
	C222.493134,157.233002 221.675278,156.649673 220.951157,155.497421 
	C220.640335,155.302689 220.329514,155.107956 220.004639,154.991425 
	C220.004639,154.991425 220.082855,155.005341 219.908356,154.487305 
	C219.611359,154.291153 219.314362,154.095001 218.984833,153.273972 
	C218.622147,152.556580 218.259460,151.839172 218.004501,150.521133 
	C217.680634,150.314301 217.356781,150.107452 217.066269,149.961655 
	C217.066269,149.961655 217.124680,149.923874 217.039307,149.223648 
	C216.369705,148.778503 215.700119,148.333359 214.989182,147.203400 
	C214.285324,145.833176 213.581482,144.462936 212.988358,142.506424 
	C212.667969,142.309204 212.347565,142.112000 212.004745,141.978180 
	C212.004745,141.978180 212.070450,141.992493 211.917221,141.464462 
M91.945114,50.464260 
	C91.640770,50.272560 91.336426,50.080860 90.880470,49.438148 
	C90.691574,49.149796 90.425003,48.996525 89.901245,48.471138 
	C89.601669,48.291107 89.302101,48.111076 88.999794,47.998714 
	C88.999794,47.998714 89.067429,47.995213 88.900597,47.475582 
	C88.599205,47.288479 88.297806,47.101376 88.008408,46.982651 
	C88.008408,46.982651 88.076103,46.967205 88.029099,46.303394 
	C87.382996,45.506691 86.736885,44.709991 86.068062,43.895046 
	C86.068062,43.895046 86.085068,43.871330 85.847771,43.215019 
	C84.738976,42.144913 83.566566,41.132561 82.533020,39.994137 
	C79.095718,36.208038 75.612061,32.457108 72.333916,28.535751 
	C69.949226,25.683155 67.528046,26.460648 66.008339,28.811476 
	C65.384155,29.777020 66.626976,32.388817 67.623299,33.837109 
	C68.588921,35.240788 70.464844,35.978298 71.702797,37.241745 
	C76.168404,41.799335 80.533546,46.455349 84.997551,51.003971 
	C84.997551,51.003971 84.925987,51.063110 85.176735,51.666515 
	C86.763084,53.131855 88.349434,54.597195 89.985870,55.994553 
	C89.985870,55.994553 89.924332,56.055504 89.986664,56.827480 
	C90.025414,58.154110 90.160835,59.486279 90.085182,60.806351 
	C89.837227,65.133080 89.842079,69.301155 94.979164,71.060867 
	C94.979164,71.060867 94.906921,71.058540 95.181946,71.640625 
	C95.795067,71.813148 96.408195,71.985680 96.983246,72.031898 
	C96.983246,72.031898 96.857094,72.070511 96.970299,72.718964 
	C97.618622,73.512680 98.266937,74.306396 98.954536,75.028046 
	C98.954536,75.028046 98.881119,75.064758 98.950073,75.731300 
	C99.619926,76.539375 100.289780,77.347443 100.976456,78.790863 
	C101.621391,79.550003 102.266335,80.309143 102.967545,81.704834 
	C103.018089,82.126892 103.068634,82.548958 103.084099,83.573433 
	C103.691345,84.079575 104.298599,84.585724 104.894943,85.114861 
	C104.894943,85.114861 104.896461,85.140266 104.914230,85.837074 
	C106.283852,87.511024 107.653473,89.184975 109.695663,91.252975 
	C110.799919,96.275772 111.682671,101.364349 113.142921,106.281425 
	C113.583008,107.763306 115.627525,108.768700 116.937096,109.992355 
	C117.624947,108.850792 119.023979,107.615059 118.887283,106.582657 
	C117.862717,98.844475 117.727524,90.710167 111.004158,84.251053 
	C109.255905,79.553574 103.603455,76.429115 104.773697,70.189278 
	C106.816544,71.333015 108.341934,72.187042 109.982735,73.688210 
	C110.628227,74.493073 111.273727,75.297935 111.984970,76.025215 
	C111.984970,76.025215 111.898407,76.078491 112.169220,76.663719 
	C112.787636,76.812820 113.406052,76.961914 113.975861,77.022690 
	C113.975861,77.022690 113.887749,77.071693 113.971046,77.805176 
	C117.721298,80.745789 121.340668,83.888351 125.323792,86.469620 
	C126.200882,87.038025 128.368698,85.614731 129.942154,85.108604 
	C129.125076,83.814766 128.560104,82.211464 127.435425,81.295204 
	C125.446152,79.674576 123.116302,78.471992 120.316917,76.819435 
	C115.352150,71.599342 109.429214,67.256058 107.085724,59.796001 
	C106.447472,57.764290 103.177254,56.559391 100.717041,54.259838 
	C98.799515,54.144104 96.881989,54.028370 94.981987,54.024620 
	C94.981987,54.024620 95.094040,54.007568 94.924232,53.472588 
	C94.613152,53.284790 94.302071,53.096992 93.994415,53.007164 
	C93.994415,53.007164 94.092392,53.003876 93.932030,52.467319 
	C93.620743,52.283253 93.309464,52.099186 92.996231,52.003643 
	C92.996231,52.003643 93.084755,52.005669 92.905746,51.482113 
	C92.600525,51.292545 92.295296,51.102974 91.994873,51.006981 
	C91.994873,51.006981 92.088455,51.002316 91.945114,50.464260 
z"/>
<path fill="#37AFCC" opacity="1.000000" stroke="none" 
	d="
M206.095535,105.057388 
	C208.169678,107.372063 210.243835,109.686737 212.680634,112.259857 
	C213.043304,112.518303 213.068420,112.868546 213.338760,113.085381 
	C215.411209,114.811180 217.213318,116.320137 219.015427,117.829102 
	C214.560043,117.623535 209.532516,117.616348 208.777557,123.077393 
	C208.104462,127.946320 209.225128,133.071884 209.656525,138.075363 
	C209.719864,138.809753 210.350067,139.495270 211.018372,140.748077 
	C211.569336,141.525986 211.819885,141.759247 212.070450,141.992493 
	C212.070450,141.992493 212.004745,141.978180 212.126678,142.163696 
	C212.420227,142.629272 212.629898,142.877106 212.877625,143.092712 
	C213.581482,144.462936 214.285324,145.833176 215.112320,147.839752 
	C215.865204,148.958694 216.494934,149.441284 217.124680,149.923874 
	C217.124680,149.923874 217.066269,149.961655 217.162094,150.154922 
	C217.470871,150.606049 217.683807,150.863922 217.896759,151.121780 
	C218.259460,151.839172 218.622147,152.556580 219.157898,153.790070 
	C219.581589,154.539230 219.832214,154.772293 220.082855,155.005341 
	C220.082855,155.005341 220.004639,154.991425 220.125183,155.162842 
	C220.415436,155.606857 220.619339,155.850891 220.857437,156.066345 
	C221.675278,156.649673 222.493134,157.233002 223.591980,158.301331 
	C223.296783,163.195953 220.143631,160.767426 217.953644,160.660339 
	C216.906906,159.170807 215.900497,158.022797 214.894104,156.874771 
	C214.629089,156.442307 214.364075,156.009842 214.017517,154.967346 
	C213.008789,153.229004 212.081619,152.100693 211.154465,150.972366 
	C211.154465,150.972366 211.018417,150.545029 210.967255,149.948227 
	C208.588272,145.927277 206.260452,142.503128 203.932632,139.078995 
	C202.953262,135.446777 202.089478,131.777374 200.938934,128.200211 
	C200.463348,126.721542 199.372925,125.440643 198.562134,124.069801 
	C197.396133,125.119209 195.784531,125.954643 195.156586,127.262405 
	C193.835464,130.013779 192.999786,133.002640 192.022400,135.913345 
	C191.097244,138.668488 189.529770,141.024094 186.384064,139.838913 
	C184.633118,139.179184 182.686371,137.249344 182.154556,135.490707 
	C180.750763,130.848694 179.927673,126.011421 179.132507,121.208984 
	C177.347702,110.429634 175.719986,99.624275 174.265137,88.130363 
	C175.082565,86.413673 175.663193,85.396126 176.301605,84.277290 
	C177.844330,85.783897 178.966827,86.880112 180.089325,87.976334 
	C181.725525,96.512642 183.436600,105.035538 184.969269,113.590393 
	C185.858261,118.552513 186.460403,123.566017 187.799347,128.737946 
	C189.666275,124.950829 190.925491,120.982178 192.184692,117.013527 
	C192.129150,116.256737 192.073593,115.499954 192.393738,114.235550 
	C193.824829,111.786903 194.880234,109.845871 195.935638,107.904839 
	C195.935638,107.904839 195.978317,107.957565 196.152786,107.818344 
	C196.551208,107.420486 196.775162,107.161858 196.999115,106.903229 
	C196.999115,106.903229 196.997147,106.992928 197.140961,106.871887 
	C197.529907,106.580910 197.757889,106.390472 197.968750,106.179543 
	C198.145096,106.139801 198.321457,106.100067 198.894455,106.158264 
	C199.585464,106.261383 199.818832,106.138741 199.991241,105.888283 
	C199.991241,105.888283 199.982346,105.971977 200.277847,105.853592 
	C201.666687,103.139580 202.932098,100.600052 203.801849,97.931557 
	C204.572891,95.565948 204.870682,93.049164 205.440338,90.613853 
	C205.887772,88.701065 206.431274,86.810745 206.932098,84.910446 
	C206.932098,84.910446 206.975845,84.972977 207.139343,84.766510 
	C207.509949,84.004578 207.717087,83.449127 207.924210,82.893669 
	C207.924210,82.893669 207.922012,82.964333 208.234772,82.850891 
	C209.689835,80.431618 210.832123,78.125778 211.974411,75.819931 
	C211.995819,75.514488 212.135178,75.278770 212.907867,75.178345 
	C214.275055,75.468178 215.126892,75.692459 216.002167,75.939301 
	C216.025635,75.961876 216.078476,75.999908 216.071381,76.469254 
	C216.201767,78.190079 216.339233,79.441559 216.476700,80.693039 
	C216.196762,81.065849 215.916809,81.438660 215.058563,81.968414 
	C213.003952,84.777794 211.527649,87.430222 210.051346,90.082642 
	C210.051346,90.082642 210.025223,90.021614 209.702332,90.117798 
	C208.402512,91.604767 206.796066,92.902969 206.575211,94.404930 
	C206.060715,97.903603 206.213242,101.500366 206.095535,105.057388 
M204.918228,112.789543 
	C203.066650,111.216965 200.790848,109.663910 199.242020,112.499626 
	C198.363220,114.108589 199.083298,116.590836 199.083298,118.679779 
	C199.876282,118.861435 200.669250,119.043083 201.462234,119.224731 
	C202.635468,117.344284 203.808701,115.463829 204.918228,112.789543 
z"/>
<path fill="#51ABCA" opacity="1.000000" stroke="none" 
	d="
M216.696274,80.417130 
	C216.339233,79.441559 216.201767,78.190079 216.360901,76.325195 
	C217.283142,74.601196 218.304016,73.535629 218.436935,72.368896 
	C218.613266,70.821060 218.096298,69.194229 217.877258,67.601349 
	C216.901810,68.780441 215.926346,69.959526 214.950897,71.138618 
	C214.236038,71.098373 213.521179,71.058128 212.168304,70.867973 
	C209.644409,70.739639 207.758469,70.755783 205.872726,70.784996 
	C204.869766,70.800537 203.867157,70.838722 202.864380,70.866692 
	C205.661270,66.741173 210.747284,64.490623 211.520111,58.507763 
	C211.834412,56.074577 214.876495,53.384514 218.806442,53.865963 
	C220.167587,54.032715 222.112411,53.254032 223.076553,52.232933 
	C230.246735,44.639404 237.143005,36.785793 244.373291,29.251831 
	C245.633972,27.938177 248.070221,27.223223 249.952042,27.244537 
	C250.990143,27.256294 253.012543,29.618813 252.801773,30.487278 
	C252.453537,31.922117 250.622025,32.973820 249.479584,34.244526 
	C247.803452,36.108864 246.236984,38.073475 244.529999,39.908108 
	C239.301788,45.527344 233.956696,51.040550 228.846802,56.764393 
	C228.028595,57.680908 227.955017,59.464539 227.936554,60.852619 
	C227.891174,64.263969 228.569504,67.528755 225.320267,70.365013 
	C222.115860,73.162140 219.685699,76.846252 216.696274,80.417130 
M221.526169,67.499184 
	C221.526169,67.499184 221.487503,67.512627 221.526169,67.499184 
z"/>
<path fill="#4AC095" opacity="1.000000" stroke="none" 
	d="
M102.176041,150.003555 
	C102.260544,149.709518 102.345055,149.415466 102.972748,149.102509 
	C105.022148,149.680328 106.528351,150.277069 108.034561,150.873810 
	C106.412941,152.773010 104.791321,154.672211 103.169708,156.571411 
	C103.770302,157.144638 104.370903,157.717865 104.971497,158.291107 
	C107.337357,156.036575 109.579575,153.631485 112.098373,151.563217 
	C115.773651,148.545319 119.448303,145.422226 123.541260,143.072006 
	C125.047508,142.207108 129.262054,142.850403 129.604126,143.778122 
	C130.565704,146.386124 128.063049,147.003891 125.901207,148.421295 
	C121.060860,151.594818 117.152664,156.226685 113.003670,160.402557 
	C110.938850,162.480743 109.060509,164.420853 108.405090,167.843170 
	C107.387390,173.157104 102.263397,175.512894 96.149124,174.342010 
	C93.611084,173.830948 91.760201,173.342773 89.909317,172.854584 
	C89.955528,170.889526 90.161674,168.912430 90.014885,166.961884 
	C89.702896,162.816147 90.689735,159.765961 94.921974,157.802689 
	C97.370155,156.667007 99.173523,154.141266 101.806030,152.035004 
	C102.288658,151.220444 102.232346,150.612000 102.176041,150.003555 
z"/>
<path fill="#42ACC7" opacity="1.000000" stroke="none" 
	d="
M101.989403,117.836273 
	C94.540237,117.895889 87.085838,117.823936 79.646103,118.120338 
	C78.058609,118.183586 76.128914,119.229820 75.042175,120.439079 
	C72.144157,123.663803 65.377075,123.828094 62.230122,120.799126 
	C60.820496,119.442360 58.658722,118.215385 56.777031,118.118454 
	C50.168175,117.778023 43.532715,117.954041 36.370880,117.542038 
	C35.602219,115.816032 35.370029,114.482033 35.590168,113.101730 
	C38.186790,113.043846 40.333916,113.098969 42.474846,113.008064 
	C48.664288,112.745255 54.851227,112.423683 61.039150,112.125175 
	C64.031845,106.258850 69.304489,105.933304 75.191467,111.942047 
	C87.005646,112.717506 98.467934,112.824013 109.601128,113.142754 
	C106.484055,113.773277 103.696075,114.191566 100.694336,114.641930 
	C101.262268,116.042770 101.625832,116.939522 101.989403,117.836273 
z"/>
<path fill="#42BDA1" opacity="1.000000" stroke="none" 
	d="
M149.184662,141.004288 
	C147.778122,134.490677 146.253799,127.999771 144.993256,121.458038 
	C143.208084,112.193542 141.638641,102.887627 139.914047,93.611107 
	C139.721268,92.574188 139.119720,91.613266 137.796555,90.624252 
	C137.518204,92.496666 137.239868,94.369072 136.617096,96.508209 
	C134.555496,95.209709 132.838333,93.644485 131.121155,92.079262 
	C131.749146,89.420174 131.889053,86.480560 133.193817,84.210457 
	C133.939789,82.912560 136.529617,82.474731 138.381149,82.053864 
	C142.149841,81.197197 143.963348,83.768837 144.757248,86.736061 
	C146.090790,91.720261 147.014145,96.820953 147.958359,101.900833 
	C149.084824,107.961250 150.043961,114.052658 151.090317,120.128098 
	C151.720886,123.789406 152.379486,127.445885 152.933411,131.711700 
	C153.167709,132.879364 153.494080,133.439896 153.820465,134.000412 
	C154.107361,135.422775 154.394257,136.845123 154.450928,138.807953 
	C153.816437,140.880463 153.412186,142.412537 152.673553,143.958206 
	C151.893402,143.982025 151.447617,143.992233 151.036774,143.726868 
	C150.442703,142.635635 149.813675,141.819962 149.184662,141.004288 
z"/>
<path fill="#43A9CA" opacity="1.000000" stroke="none" 
	d="
M109.867317,73.041069 
	C108.341934,72.187042 106.816544,71.333015 104.773697,70.189278 
	C103.603455,76.429115 109.255905,79.553574 110.693893,84.573761 
	C107.892845,83.620415 105.402061,82.344345 102.911270,81.068283 
	C102.266335,80.309143 101.621391,79.550003 100.942841,78.129944 
	C100.233192,76.667603 99.557159,75.866180 98.881119,75.064758 
	C98.881119,75.064758 98.954536,75.028046 98.919342,74.724716 
	C98.208466,73.637764 97.532784,72.854141 96.857094,72.070511 
	C96.857094,72.070511 96.983246,72.031898 96.773071,71.893784 
	C96.010895,71.523293 95.458908,71.290916 94.906921,71.058548 
	C94.906921,71.058540 94.979164,71.060867 94.899117,70.716278 
	C94.084160,66.594475 93.504333,62.776226 92.522240,59.064411 
	C92.217575,57.912930 90.820999,57.050350 89.924332,56.055504 
	C89.924332,56.055504 89.985870,55.994553 89.944801,55.659885 
	C88.244484,53.904514 86.585236,52.483814 84.925987,51.063110 
	C84.925987,51.063110 84.997551,51.003971 84.957138,50.670540 
	C85.445023,48.206936 80.581284,45.102444 86.085068,43.871330 
	C86.085068,43.871330 86.068062,43.895046 86.094856,44.239098 
	C86.773132,45.377838 87.424614,46.172523 88.076103,46.967209 
	C88.076103,46.967205 88.008408,46.982651 88.167191,47.142403 
	C88.573128,47.533169 88.820274,47.764191 89.067429,47.995213 
	C89.067429,47.995213 88.999794,47.998714 89.165695,48.155479 
	C89.581322,48.534271 89.831047,48.756298 90.080765,48.978325 
	C90.425003,48.996525 90.691574,49.149796 91.112793,49.866371 
	C91.592896,50.530502 91.840675,50.766411 92.088455,51.002316 
	C92.088455,51.002316 91.994873,51.006981 92.163116,51.153950 
	C92.582497,51.535835 92.833626,51.770752 93.084755,52.005669 
	C93.084755,52.005669 92.996231,52.003643 93.164932,52.155563 
	C93.586563,52.539612 93.839478,52.771744 94.092392,53.003876 
	C94.092392,53.003876 93.994415,53.007164 94.164520,53.153320 
	C94.587761,53.535507 94.840897,53.771538 95.094040,54.007568 
	C95.094040,54.007568 94.981987,54.024620 95.302017,54.183304 
	C97.453011,54.553001 99.283981,54.764015 101.114952,54.975033 
	C103.177254,56.559391 106.447472,57.764290 107.085724,59.796001 
	C109.429214,67.256058 115.352150,71.599342 120.626541,77.272072 
	C120.794250,78.466873 120.652344,79.209030 120.526955,79.864815 
	C118.151207,78.865334 116.019478,77.968513 113.887749,77.071693 
	C113.887749,77.071693 113.975861,77.022690 113.765015,76.879860 
	C113.002251,76.517517 112.450325,76.298004 111.898407,76.078491 
	C111.898407,76.078491 111.984970,76.025215 111.899399,75.744644 
	C111.164993,74.656403 110.516151,73.848732 109.867317,73.041069 
M100.574158,65.937073 
	C100.669312,64.226433 100.859016,62.509377 100.743912,60.813004 
	C100.728966,60.592724 98.692085,60.053356 98.367699,60.396122 
	C97.404610,61.413784 95.953079,63.222137 96.301750,63.942795 
	C96.863800,65.104454 98.712418,65.643631 100.574158,65.937073 
z"/>
<path fill="#55C086" opacity="1.000000" stroke="none" 
	d="
M283.872009,112.195175 
	C285.240967,111.324112 286.636414,110.491653 287.973816,109.574577 
	C291.684937,107.029816 297.105377,107.660484 299.608551,110.962517 
	C301.556091,113.531609 300.569305,119.538010 297.847229,121.683334 
	C294.858429,124.038887 289.576263,123.202583 286.637207,120.322678 
	C285.446991,119.156387 283.528320,118.166496 281.904907,118.108444 
	C275.249573,117.870476 268.580261,118.022537 261.445343,117.625443 
	C260.305237,115.865776 259.635895,114.511719 259.435883,113.103386 
	C267.894135,112.764465 275.883087,112.479820 283.872009,112.195175 
z"/>
<path fill="#45C09E" opacity="1.000000" stroke="none" 
	d="
M153.007935,143.944595 
	C153.412186,142.412537 153.816437,140.880463 154.513702,139.173401 
	C155.079422,139.983795 155.352127,140.969177 155.931976,143.064407 
	C157.738342,129.848175 159.376373,117.863594 161.251373,105.785431 
	C161.837784,107.741081 162.187210,109.790314 162.611267,112.277214 
	C164.287476,111.362282 165.545731,110.675476 166.804001,109.988678 
	C165.531158,120.658394 164.312729,131.334991 162.965149,141.995255 
	C162.151031,148.435501 161.136444,154.850433 159.725540,161.653564 
	C158.851715,162.033936 158.464264,162.037476 158.200012,161.662933 
	C159.133713,154.258926 159.944229,147.233047 160.754730,140.207169 
	C160.179840,140.119461 159.604950,140.031769 159.030060,139.944061 
	C158.183060,143.617783 157.336044,147.291519 156.175323,152.325912 
	C154.743027,148.535858 153.875473,146.240234 153.007935,143.944595 
z"/>
<path fill="#3DAFCF" opacity="1.000000" stroke="none" 
	d="
M214.587067,157.024658 
	C215.900497,158.022797 216.906906,159.170807 217.696686,160.773499 
	C218.414154,163.139389 219.009155,166.277145 220.367798,166.652740 
	C222.083527,167.127090 224.421738,165.349854 225.904465,164.772461 
	C226.192429,166.641296 226.532700,168.849487 226.872955,171.057663 
	C226.872955,171.057663 226.977539,171.477325 227.154297,171.894012 
	C227.583313,172.537781 227.835587,172.764862 228.087845,172.991959 
	C228.087845,172.991959 228.008347,172.991516 228.166245,173.152817 
	C228.577393,173.540192 228.830658,173.766281 229.083908,173.992355 
	C229.083908,173.992355 229.004715,173.992233 229.161163,174.153870 
	C229.570404,174.540604 229.823212,174.765686 230.076019,174.990768 
	C230.076019,174.990768 230.006699,174.992569 230.163101,175.157654 
	C230.571915,175.545349 230.824326,175.767944 231.076752,175.990524 
	C231.076752,175.990524 231.006882,175.992462 231.165573,176.157730 
	C231.578796,176.547501 231.833344,176.772003 232.087875,176.996506 
	C232.087875,176.996506 232.026077,176.977142 232.024246,177.267349 
	C231.153702,178.128586 230.265015,179.191360 229.420883,179.157089 
	C228.107300,179.103745 226.823975,178.304810 225.527832,177.821869 
	C225.527832,177.821869 225.261871,177.749847 225.308990,177.314026 
	C224.543610,176.291718 223.731110,175.705200 222.918610,175.118698 
	C221.720840,174.840317 220.488831,174.227371 219.331696,174.345840 
	C215.758224,174.711670 212.898560,172.965790 212.241653,170.010849 
	C211.101379,164.881546 207.422867,162.063400 204.008438,158.102356 
	C203.931946,155.625473 201.552032,152.612457 206.063309,152.923508 
	C206.063309,152.923508 206.026611,152.987717 206.184875,153.144577 
	C206.567459,153.549484 206.814575,153.772217 207.084503,153.969666 
	C207.084503,153.969666 207.019180,153.978638 207.180115,154.136597 
	C207.563171,154.538925 207.810791,154.753937 208.083908,154.939560 
	C210.149277,155.684555 212.214645,156.429535 214.587067,157.024658 
z"/>
<path fill="#4EBF91" opacity="1.000000" stroke="none" 
	d="
M258.966553,113.157661 
	C259.635895,114.511719 260.305237,115.865776 260.979370,117.562477 
	C259.562134,118.547104 257.789886,118.849709 256.780487,119.891472 
	C252.971939,123.822151 249.269867,124.144806 245.144455,120.711006 
	C243.832321,119.618835 242.234741,118.869606 240.371124,117.509895 
	C238.818085,112.099236 234.789154,114.654999 231.967117,113.809837 
	C231.947250,113.617363 231.917404,113.231506 232.378906,113.172638 
	C236.519379,112.443199 240.198334,111.772636 243.877289,111.102066 
	C248.185318,105.948631 253.571381,106.242661 257.817200,112.210861 
	C258.450226,112.810959 258.693665,113.003006 258.966553,113.157661 
z"/>
<path fill="#57C18F" opacity="1.000000" stroke="none" 
	d="
M35.137844,113.148033 
	C35.370029,114.482033 35.602219,115.816032 35.903854,117.482452 
	C34.707836,118.407906 32.869457,118.659988 32.277870,119.654053 
	C29.940989,123.580803 26.547348,123.609810 22.989296,122.432388 
	C19.282097,121.205620 17.702311,118.214920 18.012192,114.378822 
	C18.262228,111.283562 19.335854,108.742104 22.869814,107.947662 
	C27.004190,107.018257 30.529522,107.269012 32.891418,112.213493 
	C33.964378,112.807281 34.551113,112.977654 35.137844,113.148033 
z"/>
<path fill="#4DAFC7" opacity="1.000000" stroke="none" 
	d="
M89.057663,181.053284 
	C83.777924,187.466965 78.615158,193.984039 73.116257,200.203964 
	C72.061325,201.397171 69.513412,202.132477 67.972046,201.760910 
	C66.738907,201.463638 65.340347,199.213440 65.230644,197.739532 
	C65.144638,196.584030 66.819511,195.194000 67.894524,194.085037 
	C68.939163,193.007385 70.274208,192.217682 71.380920,191.192673 
	C76.380814,186.561966 81.344963,181.892670 86.831131,177.360321 
	C87.912750,178.673355 88.485207,179.863327 89.057663,181.053284 
z"/>
<path fill="#42BD99" opacity="1.000000" stroke="none" 
	d="
M163.149353,89.014450 
	C164.110168,82.284576 165.070999,75.554703 166.451447,68.327438 
	C169.957932,66.529007 173.044769,65.227966 176.131622,63.926933 
	C177.076157,67.685158 178.020691,71.443390 178.575928,75.518478 
	C176.180862,74.907974 174.175095,73.980614 172.169327,73.053261 
	C171.517929,75.563492 170.746933,78.050179 170.247025,80.590218 
	C169.690247,83.419197 169.380142,86.296715 168.590454,89.636002 
	C166.528610,89.750748 164.838989,89.382599 163.149353,89.014450 
z"/>
<path fill="#45C09E" opacity="1.000000" stroke="none" 
	d="
M108.394119,150.802612 
	C106.528351,150.277069 105.022148,149.680328 103.210556,149.023834 
	C103.062317,148.385315 103.219460,147.806564 103.846741,146.950684 
	C104.561073,146.451508 104.776924,146.204666 104.964417,145.933029 
	C105.483803,144.250107 105.552040,142.181915 106.602142,140.952194 
	C110.731178,136.116943 112.618393,130.663498 112.809982,123.919403 
	C115.017914,121.256203 116.765427,120.405991 118.804237,123.016258 
	C118.876701,132.500763 115.806351,140.850037 109.814941,148.180481 
	C109.256607,148.863602 109.097931,149.873337 108.394119,150.802612 
z"/>
<path fill="#48C08F" opacity="1.000000" stroke="none" 
	d="
M176.082001,63.482628 
	C173.044769,65.227966 169.957932,66.529007 166.522522,67.914253 
	C166.778427,61.162079 167.296417,54.315628 168.090057,47.501274 
	C168.196716,46.585358 169.719849,45.136711 170.539276,45.168449 
	C171.707031,45.213684 173.673447,46.245232 173.834717,47.124100 
	C174.800247,52.386089 175.345917,57.725128 176.082001,63.482628 
z"/>
<path fill="#3BB2C6" opacity="1.000000" stroke="none" 
	d="
M102.939407,81.386551 
	C105.402061,82.344345 107.892845,83.620415 110.741951,84.934799 
	C117.727524,90.710167 117.862717,98.844475 118.887283,106.582657 
	C119.023979,107.615059 117.624947,108.850792 116.937088,109.992355 
	C115.627525,108.768700 113.583008,107.763306 113.142921,106.281425 
	C111.682671,101.364349 110.799919,96.275772 109.344742,90.688873 
	C107.628044,88.463264 106.262253,86.801765 104.896461,85.140266 
	C104.896461,85.140266 104.894943,85.114861 104.822914,84.819092 
	C104.206978,84.005882 103.663078,83.488449 103.119171,82.971016 
	C103.068634,82.548958 103.018089,82.126892 102.939407,81.386551 
z"/>
<path fill="#51ABCA" opacity="1.000000" stroke="none" 
	d="
M85.966415,43.543175 
	C80.581284,45.102444 85.445023,48.206936 84.926682,50.705650 
	C80.533546,46.455349 76.168404,41.799335 71.702797,37.241745 
	C70.464844,35.978298 68.588921,35.240788 67.623299,33.837109 
	C66.626976,32.388817 65.384155,29.777020 66.008339,28.811476 
	C67.528046,26.460648 69.949226,25.683155 72.333916,28.535751 
	C75.612061,32.457108 79.095718,36.208038 82.533020,39.994137 
	C83.566566,41.132561 84.738976,42.144913 85.966415,43.543175 
z"/>
<path fill="#4DAFC7" opacity="1.000000" stroke="none" 
	d="
M202.567749,71.014473 
	C203.867157,70.838722 204.869766,70.800537 205.872726,70.784996 
	C207.758469,70.755783 209.644409,70.739639 211.810699,70.889877 
	C211.303970,71.973625 210.516815,72.885551 209.067474,73.928665 
	C206.485703,74.188545 203.891556,73.570183 205.041046,77.097687 
	C201.438553,80.769310 198.805725,85.796898 192.946228,86.366730 
	C191.711761,86.486778 190.357269,85.372650 189.058075,84.827194 
	C189.613434,83.576088 189.856552,81.988289 190.778915,81.132980 
	C194.495651,77.686447 198.422134,74.466133 202.567749,71.014473 
z"/>
<path fill="#49ACC8" opacity="1.000000" stroke="none" 
	d="
M225.719681,178.082687 
	C226.823975,178.304810 228.107300,179.103745 229.420883,179.157089 
	C230.265015,179.191360 231.153702,178.128586 232.043976,177.241669 
	C237.138748,182.275665 242.211960,187.625549 246.924545,193.651505 
	C245.880707,195.492416 245.197525,196.657257 244.514343,197.822098 
	C238.313385,191.329239 232.112457,184.836380 225.719681,178.082687 
z"/>
<path fill="#3CBEA5" opacity="1.000000" stroke="none" 
	d="
M163.083328,89.434830 
	C164.838989,89.382599 166.528610,89.750748 168.519104,90.053787 
	C168.199478,96.357414 167.578995,102.726158 166.881256,109.541779 
	C165.545731,110.675476 164.287476,111.362282 162.611267,112.277214 
	C162.187210,109.790314 161.837784,107.741081 161.321594,105.365616 
	C161.775635,99.977997 162.396469,94.916611 163.083328,89.434830 
z"/>
<path fill="#3BB2C6" opacity="1.000000" stroke="none" 
	d="
M205.937805,152.614380 
	C201.552032,152.612457 203.931946,155.625473 203.870239,157.796021 
	C199.359238,154.647949 194.713287,151.324661 190.435364,147.580856 
	C189.268127,146.559387 189.207397,144.273544 188.507385,142.173523 
	C197.504578,141.418579 200.900345,148.108307 205.937805,152.614380 
z"/>
<path fill="#3ABAB8" opacity="1.000000" stroke="none" 
	d="
M117.007286,113.171478 
	C119.695038,112.776901 122.382782,112.382324 125.798080,111.825943 
	C128.722244,109.728508 128.688507,104.305595 133.838196,106.987213 
	C133.475830,108.876091 133.113480,110.764969 132.227844,113.096985 
	C131.474152,114.380280 131.243713,115.220451 131.013275,116.060616 
	C131.013275,116.060616 130.997925,116.000092 130.621994,116.099731 
	C126.166473,116.480255 122.086891,116.761131 117.984039,116.704994 
	C117.642944,115.302475 117.325111,114.236977 117.007286,113.171478 
z"/>
<path fill="#3CBEA5" opacity="1.000000" stroke="none" 
	d="
M134.014038,106.635086 
	C128.688507,104.305595 128.722244,109.728508 126.211914,111.794846 
	C127.589066,105.569641 129.279922,99.213722 131.045959,92.468529 
	C132.838333,93.644485 134.555496,95.209709 136.562439,96.903641 
	C135.964737,100.115875 135.077301,103.199409 134.014038,106.635086 
z"/>
<path fill="#3ABAB8" opacity="1.000000" stroke="none" 
	d="
M172.106232,73.493622 
	C174.175095,73.980614 176.180862,74.907974 178.505951,75.926857 
	C179.213196,79.710518 179.601120,83.402657 180.039185,87.535561 
	C178.966827,86.880112 177.844330,85.783897 176.301605,84.277290 
	C175.663193,85.396126 175.082565,86.413673 174.333221,87.710297 
	C173.457382,83.304253 172.750275,78.619118 172.106232,73.493622 
z"/>
<path fill="#4DAFC7" opacity="1.000000" stroke="none" 
	d="
M113.929398,77.438431 
	C116.019478,77.968513 118.151207,78.865334 120.526955,79.864815 
	C120.652344,79.209030 120.794250,78.466873 120.932571,77.409576 
	C123.116302,78.471992 125.446152,79.674576 127.435425,81.295204 
	C128.560104,82.211464 129.125076,83.814766 129.942154,85.108604 
	C128.368698,85.614731 126.200882,87.038025 125.323792,86.469620 
	C121.340668,83.888351 117.721298,80.745789 113.929398,77.438431 
z"/>
<path fill="#49ACC8" opacity="1.000000" stroke="none" 
	d="
M227.062012,170.679535 
	C226.532700,168.849487 226.192429,166.641296 225.904465,164.772461 
	C224.421738,165.349854 222.083527,167.127090 220.367798,166.652740 
	C219.009155,166.277145 218.414154,163.139389 217.737030,161.115005 
	C220.143631,160.767426 223.296783,163.195953 223.876312,158.444702 
	C229.262787,160.991959 228.534134,165.570084 227.062012,170.679535 
z"/>
<path fill="#63CECF" opacity="1.000000" stroke="none" 
	d="
M118.007301,117.042007 
	C122.086891,116.761131 126.166473,116.480255 130.653198,116.100677 
	C129.573868,116.655891 128.096252,117.833221 126.599152,117.858521 
	C123.112328,117.917458 120.135284,118.342278 118.901962,122.633331 
	C116.765427,120.405991 115.017914,121.256203 113.169312,123.699326 
	C113.037544,118.059402 113.037544,118.059402 103.894135,117.712479 
	C108.549835,117.330727 113.278564,117.186371 118.007301,117.042007 
z"/>
<path fill="#3BB2C6" opacity="1.000000" stroke="none" 
	d="
M117.984039,116.705002 
	C113.278564,117.186371 108.549835,117.330727 103.460205,117.647873 
	C102.914932,117.862900 102.730560,117.905136 102.267792,117.891815 
	C101.625832,116.939522 101.262268,116.042770 100.694336,114.641930 
	C103.696075,114.191566 106.484055,113.773277 109.619308,113.152756 
	C109.966591,112.950516 109.935547,112.956085 110.225204,112.961983 
	C110.707970,112.963783 110.901070,112.959679 111.094170,112.955582 
	C112.786774,112.981728 114.479385,113.007874 116.589638,113.102753 
	C117.325111,114.236977 117.642944,115.302475 117.984039,116.705002 
z"/>
<path fill="#3ABAB8" opacity="1.000000" stroke="none" 
	d="
M231.917404,113.231506 
	C231.917404,113.231506 231.947250,113.617363 231.633545,113.814445 
	C228.319260,113.943199 228.419434,115.737640 229.023132,117.834572 
	C225.985779,117.881927 222.948410,117.929283 219.463242,117.902863 
	C217.213318,116.320137 215.411209,114.811180 213.800262,113.127838 
	C219.966751,113.046135 225.942078,113.138817 231.917404,113.231506 
z"/>
<path fill="#57C18F" opacity="1.000000" stroke="none" 
	d="
M158.076828,162.041016 
	C158.464264,162.037476 158.851715,162.033936 159.529724,162.030533 
	C159.525665,164.263107 159.543335,166.607468 158.800766,168.679352 
	C158.445572,169.670364 156.670273,170.633606 155.497879,170.684662 
	C154.689499,170.719894 153.217987,169.264801 153.063629,168.310623 
	C152.185898,162.884918 151.615341,157.409531 151.182617,151.506805 
	C151.607574,151.061646 151.790222,151.060715 152.061676,151.452545 
	C153.936905,157.186600 152.146988,163.567535 156.119553,168.273315 
	C156.604858,168.226028 157.090164,168.178757 157.575470,168.131470 
	C157.742584,166.101318 157.909714,164.071167 158.076828,162.041016 
z"/>
<path fill="#3CBEA5" opacity="1.000000" stroke="none" 
	d="
M229.474213,117.905014 
	C228.419434,115.737640 228.319260,113.943199 231.653412,114.006920 
	C234.789154,114.654999 238.818085,112.099236 240.004761,117.436966 
	C236.665146,117.870209 233.295212,117.922829 229.474213,117.905014 
z"/>
<path fill="#49ACC8" opacity="1.000000" stroke="none" 
	d="
M206.607147,85.059174 
	C206.431274,86.810745 205.887772,88.701065 205.440338,90.613853 
	C204.870682,93.049164 204.572891,95.565948 203.801849,97.931557 
	C202.932098,100.600052 201.666687,103.139580 200.236023,105.848877 
	C200.591507,102.508461 201.012833,98.970154 202.051102,95.623230 
	C203.157364,92.057121 204.847168,88.672028 206.607147,85.059174 
z"/>
<path fill="#42BDA1" opacity="1.000000" stroke="none" 
	d="
M89.371918,180.924789 
	C88.485207,179.863327 87.912750,178.673355 87.138710,177.224426 
	C87.686089,175.620560 88.435043,174.275665 89.546661,172.892670 
	C91.760201,173.342773 93.611084,173.830948 95.798058,174.205948 
	C93.984825,176.327286 91.835503,178.561798 89.371918,180.924789 
z"/>
<path fill="#B8F8F9" opacity="1.000000" stroke="none" 
	d="
M109.948410,112.940521 
	C98.467934,112.824013 87.005646,112.717506 75.300568,112.263901 
	C86.368126,111.948776 97.678474,111.980743 109.467293,112.279533 
	C109.945763,112.546356 109.935547,112.956085 109.935547,112.956085 
	C109.935547,112.956085 109.966591,112.950516 109.948410,112.940521 
z"/>
<path fill="#51ABCA" opacity="1.000000" stroke="none" 
	d="
M89.955498,56.441490 
	C90.820999,57.050350 92.217575,57.912930 92.522240,59.064411 
	C93.504333,62.776226 94.084160,66.594475 94.871750,70.739883 
	C89.842079,69.301155 89.837227,65.133080 90.085182,60.806351 
	C90.160835,59.486279 90.025414,58.154110 89.955498,56.441490 
z"/>
<path fill="#B8F8F9" opacity="1.000000" stroke="none" 
	d="
M232.378906,113.172638 
	C225.942078,113.138817 219.966751,113.046135 213.529922,112.910995 
	C213.068420,112.868546 213.043304,112.518303 213.034821,112.342979 
	C221.464417,112.111748 229.902817,112.081810 238.340271,111.977058 
	C239.942719,111.957176 241.541473,111.640961 243.509613,111.281769 
	C240.198334,111.772636 236.519379,112.443199 232.378906,113.172638 
z"/>
<path fill="#49ACC8" opacity="1.000000" stroke="none" 
	d="
M214.963654,71.320770 
	C215.926346,69.959526 216.901810,68.780441 217.877258,67.601349 
	C218.096298,69.194229 218.613266,70.821060 218.436935,72.368896 
	C218.304016,73.535629 217.283142,74.601196 216.367996,75.855850 
	C216.078476,75.999908 216.025635,75.961876 215.928772,75.602631 
	C215.539185,74.118050 215.246460,72.992714 214.953735,71.867386 
	C214.953735,71.867386 214.976425,71.502914 214.963654,71.320770 
z"/>
<path fill="#49ACC8" opacity="1.000000" stroke="none" 
	d="
M206.433441,104.858536 
	C206.213242,101.500366 206.060715,97.903603 206.575211,94.404930 
	C206.796066,92.902969 208.402512,91.604767 209.734497,90.126022 
	C208.983475,94.911934 207.877411,99.785812 206.433441,104.858536 
z"/>
<path fill="#B8F8F9" opacity="1.000000" stroke="none" 
	d="
M35.590168,113.101730 
	C34.551113,112.977654 33.964378,112.807281 33.213753,112.380173 
	C42.064774,112.086266 51.079689,112.049103 60.566875,112.068558 
	C54.851227,112.423683 48.664288,112.745255 42.474846,113.008064 
	C40.333916,113.098969 38.186790,113.043846 35.590168,113.101730 
z"/>
<path fill="#37AFCC" opacity="1.000000" stroke="none" 
	d="
M244.625275,197.976501 
	C245.197525,196.657257 245.880707,195.492416 246.965820,193.991058 
	C247.372406,193.867340 247.377045,194.080139 247.246307,194.259415 
	C247.110901,194.225891 247.269791,194.212280 247.269791,194.212280 
	C247.269791,194.212280 246.837067,194.201355 246.837067,194.201355 
	C247.558990,194.319962 248.280930,194.438583 249.560471,195.113831 
	C250.348267,196.094528 250.578430,196.518600 250.808609,196.942673 
	C250.116913,197.949310 249.425217,198.955933 248.106689,199.741638 
	C246.949570,199.357788 246.419281,199.194855 245.888977,199.031921 
	C245.504715,198.731583 245.120453,198.431244 244.625275,197.976501 
z"/>
<path fill="#B8F8F9" opacity="1.000000" stroke="none" 
	d="
M259.435883,113.103386 
	C258.693665,113.003006 258.450226,112.810959 258.147949,112.365250 
	C266.359589,112.125259 274.659637,112.101555 283.415833,112.136513 
	C275.883087,112.479820 267.894135,112.764465 259.435883,113.103386 
z"/>
<path fill="#49ACC8" opacity="1.000000" stroke="none" 
	d="
M192.027222,117.349640 
	C190.925491,120.982178 189.666275,124.950829 188.162262,128.915161 
	C189.234909,125.169136 190.552322,121.427444 192.027222,117.349640 
z"/>
<path fill="#45C09E" opacity="1.000000" stroke="none" 
	d="
M151.972870,151.059799 
	C151.790222,151.060715 151.607574,151.061646 151.151199,151.065277 
	C150.264450,147.992661 149.651443,144.917358 149.111542,141.423187 
	C149.813675,141.819962 150.442703,142.635635 151.182205,144.089661 
	C151.519424,146.838593 151.746155,148.949203 151.972870,151.059799 
z"/>
<path fill="#3DAFCF" opacity="1.000000" stroke="none" 
	d="
M203.965698,139.440613 
	C206.260452,142.503128 208.588272,145.927277 210.930740,149.726990 
	C208.629868,146.669113 206.314316,143.235687 203.965698,139.440613 
z"/>
<path fill="#49ACC8" opacity="1.000000" stroke="none" 
	d="
M210.363159,89.929390 
	C211.527649,87.430222 213.003952,84.777794 214.831406,82.026291 
	C213.680054,84.543526 212.177521,87.159836 210.363159,89.929390 
z"/>
<path fill="#49ACC8" opacity="1.000000" stroke="none" 
	d="
M211.652878,75.978378 
	C210.832123,78.125778 209.689835,80.431618 208.206833,82.829247 
	C209.021194,80.659630 210.176270,78.398224 211.652878,75.978378 
z"/>
<path fill="#49ACC8" opacity="1.000000" stroke="none" 
	d="
M195.568207,107.942688 
	C194.880234,109.845871 193.824829,111.786903 192.470566,113.861671 
	C193.181396,111.990448 194.191071,109.985497 195.568207,107.942688 
z"/>
<path fill="#43A9CA" opacity="1.000000" stroke="none" 
	d="
M104.905350,85.488670 
	C106.262253,86.801765 107.628044,88.463264 109.008461,90.491844 
	C107.653473,89.184975 106.283852,87.511024 104.905350,85.488670 
z"/>
<path fill="#51ABCA" opacity="1.000000" stroke="none" 
	d="
M85.051361,51.364815 
	C86.585236,52.483814 88.244484,53.904514 89.919762,55.693878 
	C88.349434,54.597195 86.763084,53.131855 85.051361,51.364815 
z"/>
<path fill="#51ABCA" opacity="1.000000" stroke="none" 
	d="
M205.390289,77.053497 
	C203.891556,73.570183 206.485703,74.188545 208.772873,74.080025 
	C208.006836,75.069908 206.873184,76.039612 205.390289,77.053497 
z"/>
<path fill="#51ABCA" opacity="1.000000" stroke="none" 
	d="
M214.646118,72.007690 
	C215.246460,72.992714 215.539185,74.118050 215.905304,75.580055 
	C215.126892,75.692459 214.275055,75.468178 213.112061,75.122513 
	C213.313446,74.050072 213.825989,73.099030 214.646118,72.007690 
z"/>
<path fill="#3DAFCF" opacity="1.000000" stroke="none" 
	d="
M211.156738,151.302826 
	C212.081619,152.100693 213.008789,153.229004 213.921448,154.720703 
	C212.990952,153.933823 212.074982,152.783554 211.156738,151.302826 
z"/>
<path fill="#49ACC8" opacity="1.000000" stroke="none" 
	d="
M223.016205,175.381165 
	C223.731110,175.705200 224.543610,176.291718 225.269104,177.182159 
	C224.492661,176.871948 223.803238,176.257797 223.016205,175.381165 
z"/>
<path fill="#51ABCA" opacity="1.000000" stroke="none" 
	d="
M100.916000,54.617435 
	C99.283981,54.764015 97.453011,54.553001 95.293251,54.127308 
	C96.881989,54.028370 98.799515,54.144104 100.916000,54.617435 
z"/>
<path fill="#51ABCA" opacity="1.000000" stroke="none" 
	d="
M88.052597,46.635300 
	C87.424614,46.172523 86.773132,45.377838 86.106216,44.248222 
	C86.736885,44.709991 87.382996,45.506691 88.052597,46.635300 
z"/>
<path fill="#51ABCA" opacity="1.000000" stroke="none" 
	d="
M96.913696,72.394737 
	C97.532784,72.854141 98.208466,73.637764 98.899704,74.760757 
	C98.266937,74.306396 97.618622,73.512680 96.913696,72.394737 
z"/>
<path fill="#51ABCA" opacity="1.000000" stroke="none" 
	d="
M98.915596,75.398026 
	C99.557159,75.866180 100.233192,76.667603 100.934433,77.812271 
	C100.289780,77.347443 99.619926,76.539375 98.915596,75.398026 
z"/>
<path fill="#45C09E" opacity="1.000000" stroke="none" 
	d="
M102.104385,150.326126 
	C102.232346,150.612000 102.288658,151.220444 102.117325,151.895020 
	C101.937378,151.523682 101.985062,151.086182 102.104385,150.326126 
z"/>
<path fill="#4DAFC7" opacity="1.000000" stroke="none" 
	d="
M109.925026,73.364639 
	C110.516151,73.848732 111.164993,74.656403 111.866531,75.783432 
	C111.273727,75.297935 110.628227,74.493073 109.925026,73.364639 
z"/>
<path fill="#49ACC8" opacity="1.000000" stroke="none" 
	d="
M217.082001,149.573761 
	C216.494934,149.441284 215.865204,148.958694 215.132996,148.182159 
	C215.700119,148.333359 216.369705,148.778503 217.082001,149.573761 
z"/>
<path fill="#45C09E" opacity="1.000000" stroke="none" 
	d="
M153.890259,133.696014 
	C153.494080,133.439896 153.167709,132.879364 152.974731,132.130585 
	C153.392105,132.425415 153.676086,132.908508 153.890259,133.696014 
z"/>
<path fill="#63CECF" opacity="1.000000" stroke="none" 
	d="
M131.316208,115.886078 
	C131.243713,115.220451 131.474152,114.380280 131.899460,113.268234 
	C131.935928,113.901413 131.777527,114.806480 131.316208,115.886078 
z"/>
<path fill="#43A9CA" opacity="1.000000" stroke="none" 
	d="
M103.101639,83.272224 
	C103.663078,83.488449 104.206978,84.005882 104.828369,84.807587 
	C104.298599,84.585724 103.691345,84.079575 103.101639,83.272224 
z"/>
<path fill="#49ACC8" opacity="1.000000" stroke="none" 
	d="
M250.876465,196.648712 
	C250.578430,196.518600 250.348267,196.094528 250.059967,195.433716 
	C250.315994,195.582916 250.630142,195.968826 250.876465,196.648712 
z"/>
<path fill="#49ACC8" opacity="1.000000" stroke="none" 
	d="
M246.021652,199.319855 
	C246.419281,199.194855 246.949570,199.357788 247.714203,199.671051 
	C247.350449,199.750168 246.752396,199.678986 246.021652,199.319855 
z"/>
<path fill="#51ABCA" opacity="1.000000" stroke="none" 
	d="
M95.044434,71.349586 
	C95.458908,71.290916 96.010895,71.523293 96.792099,71.956940 
	C96.408195,71.985680 95.795067,71.813148 95.044434,71.349586 
z"/>
<path fill="#4DAFC7" opacity="1.000000" stroke="none" 
	d="
M112.033813,76.371109 
	C112.450325,76.298004 113.002251,76.517517 113.789322,76.924026 
	C113.406052,76.961914 112.787636,76.812820 112.033813,76.371109 
z"/>
<path fill="#49ACC8" opacity="1.000000" stroke="none" 
	d="
M207.626465,83.023552 
	C207.717087,83.449127 207.509949,84.004578 207.107941,84.788193 
	C207.051605,84.395370 207.190170,83.774406 207.626465,83.023552 
z"/>
<path fill="#51ABCA" opacity="1.000000" stroke="none" 
	d="
M88.984009,47.735397 
	C88.820274,47.764191 88.573128,47.533169 88.161194,47.108208 
	C88.297806,47.101376 88.599205,47.288479 88.984009,47.735397 
z"/>
<path fill="#49ACC8" opacity="1.000000" stroke="none" 
	d="
M246.792862,194.195740 
	C246.837067,194.201355 247.269791,194.212280 247.269791,194.212280 
	C247.269791,194.212280 247.110901,194.225891 246.927094,194.252502 
	C246.743301,194.279099 246.748657,194.190140 246.792862,194.195740 
z"/>
<path fill="#49ACC8" opacity="1.000000" stroke="none" 
	d="
M197.709030,106.157349 
	C197.757889,106.390472 197.529907,106.580910 197.096115,106.870850 
	C197.088058,106.705620 197.268692,106.420380 197.709030,106.157349 
z"/>
<path fill="#49ACC8" opacity="1.000000" stroke="none" 
	d="
M232.006439,176.733215 
	C231.833344,176.772003 231.578796,176.547501 231.165588,176.122772 
	C231.312927,176.105026 231.618958,176.287476 232.006439,176.733215 
z"/>
<path fill="#49ACC8" opacity="1.000000" stroke="none" 
	d="
M230.998474,175.728287 
	C230.824326,175.767944 230.571915,175.545349 230.163818,175.122986 
	C230.312164,175.104156 230.616180,175.285110 230.998474,175.728287 
z"/>
<path fill="#49ACC8" opacity="1.000000" stroke="none" 
	d="
M229.997284,174.727661 
	C229.823212,174.765686 229.570404,174.540604 229.161285,174.114273 
	C229.309509,174.096863 229.614044,174.280716 229.997284,174.727661 
z"/>
<path fill="#49ACC8" opacity="1.000000" stroke="none" 
	d="
M199.747223,105.947823 
	C199.818832,106.138741 199.585464,106.261383 199.159821,106.214043 
	C199.186752,106.117043 199.344986,106.062202 199.747223,105.947823 
z"/>
<path fill="#49ACC8" opacity="1.000000" stroke="none" 
	d="
M196.726791,106.975983 
	C196.775162,107.161858 196.551208,107.420486 196.124023,107.836304 
	C196.098679,107.678574 196.276581,107.363655 196.726791,106.975983 
z"/>
<path fill="#49ACC8" opacity="1.000000" stroke="none" 
	d="
M229.007614,173.726257 
	C228.830658,173.766281 228.577393,173.540192 228.166565,173.113068 
	C228.316422,173.094757 228.623871,173.277466 229.007614,173.726257 
z"/>
<path fill="#49ACC8" opacity="1.000000" stroke="none" 
	d="
M228.005249,172.730942 
	C227.835587,172.764862 227.583313,172.537781 227.175415,172.109222 
	C227.320724,172.095139 227.621689,172.282532 228.005249,172.730942 
z"/>
<path fill="#51ABCA" opacity="1.000000" stroke="none" 
	d="
M89.991005,48.724731 
	C89.831047,48.756298 89.581322,48.534271 89.167061,48.121647 
	C89.302101,48.111076 89.601669,48.291107 89.991005,48.724731 
z"/>
<path fill="#51ABCA" opacity="1.000000" stroke="none" 
	d="
M95.009140,53.740078 
	C94.840897,53.771538 94.587761,53.535507 94.162804,53.104340 
	C94.302071,53.096992 94.613152,53.284790 95.009140,53.740078 
z"/>
<path fill="#51ABCA" opacity="1.000000" stroke="none" 
	d="
M94.012207,52.735596 
	C93.839478,52.771744 93.586563,52.539612 93.165909,52.111298 
	C93.309464,52.099186 93.620743,52.283253 94.012207,52.735596 
z"/>
<path fill="#49ACC8" opacity="1.000000" stroke="none" 
	d="
M220.904297,155.781891 
	C220.619339,155.850891 220.415436,155.606857 220.132202,155.123734 
	C220.329514,155.107956 220.640335,155.302689 220.904297,155.781891 
z"/>
<path fill="#49ACC8" opacity="1.000000" stroke="none" 
	d="
M219.995605,154.746323 
	C219.832214,154.772293 219.581589,154.539230 219.174164,154.102509 
	C219.314362,154.095001 219.611359,154.291153 219.995605,154.746323 
z"/>
<path fill="#3BB2C6" opacity="1.000000" stroke="none" 
	d="
M208.001526,154.687042 
	C207.810791,154.753937 207.563171,154.538925 207.182892,154.103729 
	C207.322861,154.086807 207.621002,154.260681 208.001526,154.687042 
z"/>
<path fill="#3BB2C6" opacity="1.000000" stroke="none" 
	d="
M207.005981,153.710907 
	C206.814575,153.772217 206.567459,153.549484 206.184784,153.107605 
	C206.326752,153.093246 206.627106,153.272705 207.005981,153.710907 
z"/>
<path fill="#51ABCA" opacity="1.000000" stroke="none" 
	d="
M92.995255,51.743889 
	C92.833626,51.770752 92.582497,51.535835 92.160721,51.107162 
	C92.295296,51.102974 92.600525,51.292545 92.995255,51.743889 
z"/>
<path fill="#49ACC8" opacity="1.000000" stroke="none" 
	d="
M217.950623,150.821457 
	C217.683807,150.863922 217.470871,150.606049 217.145416,150.124405 
	C217.356781,150.107452 217.680634,150.314301 217.950623,150.821457 
z"/>
<path fill="#42ACC7" opacity="1.000000" stroke="none" 
	d="
M110.225204,112.961983 
	C109.935547,112.956085 109.945763,112.546356 109.926369,112.342186 
	C110.239098,112.234764 110.571220,112.331512 110.998756,112.691925 
	C110.901070,112.959679 110.707970,112.963783 110.225204,112.961983 
z"/>
<path fill="#51ABCA" opacity="1.000000" stroke="none" 
	d="
M92.016785,50.733288 
	C91.840675,50.766411 91.592896,50.530502 91.188599,50.091877 
	C91.336426,50.080860 91.640770,50.272560 92.016785,50.733288 
z"/>
<path fill="#4AC095" opacity="1.000000" stroke="none" 
	d="
M104.716400,146.020752 
	C104.776924,146.204666 104.561073,146.451508 104.125076,146.828506 
	C104.111649,146.691788 104.290016,146.400131 104.716400,146.020752 
z"/>
<path fill="#49ACC8" opacity="1.000000" stroke="none" 
	d="
M212.932983,142.799561 
	C212.629898,142.877106 212.420227,142.629272 212.137909,142.132004 
	C212.347565,142.112000 212.667969,142.309204 212.932983,142.799561 
z"/>
<path fill="#49ACC8" opacity="1.000000" stroke="none" 
	d="
M211.993835,141.728485 
	C211.819885,141.759247 211.569336,141.525986 211.169159,141.083221 
	C211.318787,141.070618 211.617996,141.267532 211.993835,141.728485 
z"/>
<path fill="#000000" opacity="1.000000" stroke="none" 
	d="
M204.950073,113.186462 
	C203.808701,115.463829 202.635468,117.344284 201.462234,119.224731 
	C200.669250,119.043083 199.876282,118.861435 199.083298,118.679779 
	C199.083298,116.590836 198.363220,114.108589 199.242020,112.499626 
	C200.790848,109.663910 203.066650,111.216965 204.950073,113.186462 
z"/>
<path fill="#49ACC8" opacity="1.000000" stroke="none" 
	d="
M221.506836,67.505905 
	C221.487503,67.512627 221.526169,67.499184 221.506836,67.505905 
z"/>
<path fill="#35C091" opacity="1.000000" stroke="none" 
	d="
M152.061676,151.452545 
	C151.746155,148.949203 151.519424,146.838593 151.147263,144.365219 
	C151.447617,143.992233 151.893402,143.982025 152.673553,143.958206 
	C153.875473,146.240234 154.743027,148.535858 156.175323,152.325912 
	C157.336044,147.291519 158.183060,143.617783 159.030060,139.944061 
	C159.604950,140.031769 160.179840,140.119461 160.754730,140.207169 
	C159.944229,147.233047 159.133713,154.258926 158.200012,161.662918 
	C157.909714,164.071167 157.742584,166.101318 157.575470,168.131470 
	C157.090164,168.178757 156.604858,168.226028 156.119553,168.273315 
	C152.146988,163.567535 153.936905,157.186600 152.061676,151.452545 
z"/>
<path fill="#000000" opacity="1.000000" stroke="none" 
	d="
M100.295853,66.191422 
	C98.712418,65.643631 96.863800,65.104454 96.301750,63.942795 
	C95.953079,63.222137 97.404610,61.413784 98.367699,60.396122 
	C98.692085,60.053356 100.728966,60.592724 100.743912,60.813004 
	C100.859016,62.509377 100.669312,64.226433 100.295853,66.191422 
z"/>
</svg>